<?xml version="1.0" encoding="iso-8859-1"?>
<!-- Uploaded to: SVG Repo, www.svgrepo.com, Generator: SVG Repo Mixer Tools -->
<svg height="600px" width="600px" version="1.1" id="Layer_1" xmlns="http://www.w3.org/2000/svg" xmlns:xlink="http://www.w3.org/1999/xlink"
	 viewBox="0 0 512 512" xml:space="preserve">
<g>
	<polygon style="fill:#ffda56;" points="256,96.387 392.533,369.453 119.467,369.453 	"/>
	<g>
		<path style="fill:#00000;" d="M256,301.187c-4.719,0-8.533-3.823-8.533-8.533v-93.867c0-4.71,3.814-8.533,8.533-8.533
			c4.719,0,8.533,3.823,8.533,8.533v93.867C264.533,297.364,260.719,301.187,256,301.187"/>
		<path style="fill:#00000;" d="M264.533,326.787c0,4.71-3.823,8.533-8.533,8.533c-4.71,0-8.533-3.823-8.533-8.533
			s3.823-8.533,8.533-8.533C260.71,318.253,264.533,322.076,264.533,326.787"/>
	</g>
</g>
</svg>